<svg width="394" height="101" viewBox="0 0 394 101" fill="none" xmlns="http://www.w3.org/2000/svg">
<g clip-path="url(#clip0_0_201)">
<path d="M31.2672 30.3701H45.0835V70.1279H40.0212C37.6995 70.1279 35.4729 69.2056 33.8312 67.5639C32.1895 65.9222 31.2672 63.6956 31.2672 61.3739V30.3701ZM50.4111 30.3701H68.6486C72.2482 30.3701 75.1552 30.8583 77.3695 31.8346C79.5183 32.7613 81.4038 34.2063 82.8573 36.0403C84.3327 37.9262 85.4049 40.0951 86.0074 42.4124C86.6645 44.9273 86.9915 47.5171 86.9801 50.1164C86.9801 54.3608 86.4974 57.6546 85.5321 59.9978C84.6388 62.2323 83.2631 64.2421 81.5033 65.8836C79.9513 67.3811 78.0526 68.4709 75.9768 69.0558C73.5942 69.7403 71.1326 70.1118 68.6541 70.1611H50.4166L50.4111 30.3701ZM62.6965 39.3728V61.0976H65.6974C68.2765 61.0976 70.1021 60.812 71.1742 60.241C72.3466 59.5736 73.2496 58.5182 73.7275 57.2566C74.3409 55.8419 74.6504 53.5373 74.6504 50.3595C74.6504 46.141 73.9633 43.2561 72.589 41.705C71.2148 40.1539 68.9378 39.3765 65.7582 39.3728H62.6965ZM100.901 39.4668V60.9373H99.2434V39.4668H100.901ZM119.056 51.3985V60.9373H117.481V51.3985C117.481 48.5745 115.856 46.7341 112.971 46.7341C109.965 46.7341 107.605 48.6961 107.605 52.8133V60.9373H106.069V45.5846H107.605V48.5137C108.104 47.4964 108.892 46.6484 109.87 46.0755C110.848 45.5026 111.972 45.23 113.104 45.2917C116.757 45.2917 119.056 47.6847 119.056 51.3985ZM126.323 47.1044V57.0522C126.323 59.7546 127.766 59.8154 130.894 59.5391V60.9207C126.876 61.5342 124.759 60.5505 124.759 57.0522V47.1044H121.383V45.5846H124.759V41.7658L126.323 41.3071V45.5846H130.91V47.0878L126.323 47.1044ZM148.137 53.3218C148.137 53.5705 148.103 53.8136 148.103 54.0568H134.226C134.597 57.5274 137.233 59.7933 140.731 59.7933C143.246 59.7933 145.152 58.6272 146.036 57.0301L147.385 57.8314C146.13 59.9149 143.737 61.3186 140.692 61.3186C135.973 61.3186 132.629 57.9419 132.629 53.3107C132.629 48.8011 135.879 45.3083 140.571 45.3083C145.263 45.3083 148.137 49.1271 148.137 53.3218ZM134.226 52.5591H146.556C146.219 48.8176 143.583 46.7341 140.576 46.7341C138.967 46.6855 137.403 47.2673 136.217 48.3554C135.031 49.4435 134.316 50.9519 134.226 52.5591ZM151.989 38.5438H153.519V60.9373H151.989V38.5438ZM158.339 38.5438H159.875V60.9373H158.339V38.5438ZM164.269 40.6605C164.269 40.4181 164.34 40.1811 164.475 39.9795C164.609 39.7778 164.801 39.6206 165.025 39.5275C165.248 39.4345 165.495 39.4099 165.733 39.4568C165.971 39.5037 166.189 39.62 166.361 39.791C166.533 39.9621 166.65 40.1802 166.698 40.4178C166.746 40.6554 166.722 40.9019 166.63 41.1262C166.538 41.3505 166.382 41.5425 166.181 41.6779C165.98 41.8134 165.743 41.8863 165.501 41.8874C165.339 41.8889 165.179 41.8582 165.029 41.7971C164.879 41.736 164.743 41.6458 164.628 41.5316C164.514 41.4175 164.423 41.2817 164.361 41.1322C164.299 40.9826 164.268 40.8223 164.269 40.6605ZM164.733 45.5846H166.28V60.9373H164.733V45.5846ZM186.203 45.5846V60.2133C186.203 64.8169 182.799 67.3978 178.566 67.3978C174.979 67.3978 172.431 65.9554 171.326 63.7172L172.68 62.949C173.476 64.5738 175.194 65.9222 178.566 65.9222C182.401 65.9222 184.645 63.7116 184.645 60.1857V57.3672C184.014 58.5612 183.063 59.5558 181.898 60.2392C180.734 60.9226 179.402 61.2677 178.052 61.2357C175.926 61.2357 173.888 60.3915 172.385 58.8887C170.882 57.3858 170.038 55.3476 170.038 53.2223C170.038 51.097 170.882 49.0587 172.385 47.5559C173.888 46.0531 175.926 45.2088 178.052 45.2088C179.402 45.1769 180.734 45.522 181.898 46.2054C183.063 46.8887 184.014 47.8833 184.645 49.0774V45.5846H186.203ZM184.667 53.2665C184.651 51.5555 183.958 49.9205 182.739 48.7191C181.521 47.5177 179.876 46.8478 178.165 46.8558C176.454 46.8638 174.816 47.5492 173.609 48.762C172.402 49.9747 171.724 51.6162 171.724 53.3273C171.724 55.0384 172.402 56.6798 173.609 57.8926C174.816 59.1054 176.454 59.7907 178.165 59.7988C179.876 59.8068 181.521 59.1369 182.739 57.9355C183.958 56.7341 184.651 55.0991 184.667 53.3881V53.2665ZM205.701 53.3218C205.701 53.5705 205.668 53.8136 205.668 54.0568H191.774C192.144 57.5274 194.78 59.7933 198.279 59.7933C200.793 59.7933 202.7 58.6272 203.584 57.0301L204.933 57.8314C203.695 59.9149 201.285 61.3186 198.246 61.3186C193.526 61.3186 190.182 57.9419 190.182 53.3107C190.182 48.8011 193.432 45.3083 198.124 45.3083C202.816 45.3083 205.701 49.1271 205.701 53.3218ZM191.774 52.5536H204.104C203.767 48.8121 201.13 46.7286 198.124 46.7286C196.514 46.6815 194.95 47.2645 193.764 48.3535C192.578 49.4425 191.864 50.9515 191.774 52.5591V52.5536ZM222.485 51.3985V60.9373H220.921V51.3985C220.921 48.5745 219.296 46.7341 216.411 46.7341C213.405 46.7341 211.045 48.6961 211.045 52.8133V60.9373H209.514V45.5846H211.045V48.5137C211.543 47.4968 212.33 46.6491 213.307 46.0761C214.284 45.5032 215.408 45.2304 216.538 45.2917C220.186 45.2917 222.485 47.6847 222.485 51.3985ZM229.752 47.1044V57.0522C229.752 59.7546 231.195 59.8154 234.323 59.5391V60.9207C230.305 61.5342 228.188 60.5505 228.188 57.0522V47.1044H224.817V45.5846H228.177V41.7658L229.741 41.3071V45.5846H234.312V47.0878L229.752 47.1044ZM261.933 50.1993C261.933 56.1182 257.728 60.9373 251.809 60.9373H243.745V39.4668H251.809C257.728 39.4668 261.933 44.2804 261.933 50.1993ZM260.336 50.1993C260.336 45.1094 256.871 40.9976 251.809 40.9976H245.37V59.4009H251.809C256.871 59.4009 260.336 55.2892 260.336 50.1993ZM280.314 53.3218V54.0568H266.393C266.758 57.5274 269.4 59.7933 272.892 59.7933C275.407 59.7933 277.314 58.6272 278.198 57.0301L279.574 57.8093C278.314 59.8928 275.921 61.2744 272.887 61.2744C268.162 61.2744 264.818 57.8977 264.818 53.2665C264.818 48.7569 268.068 45.2917 272.776 45.2917C277.485 45.2917 280.314 49.1271 280.314 53.3218ZM266.393 52.5536H278.723C278.386 48.8121 275.744 46.7286 272.738 46.7286C271.129 46.6829 269.566 47.2666 268.381 48.3554C267.196 49.4443 266.483 50.9524 266.393 52.5591V52.5536ZM305.781 51.2106V60.9373H304.277V51.2106C304.277 48.2982 302.586 46.7341 300.199 46.7341C297.618 46.7341 295.595 48.4529 295.595 52.3767V60.9373H294.059V51.2106C294.059 48.2982 292.495 46.7341 290.135 46.7341C287.62 46.7341 285.382 48.4529 285.382 52.3767V60.9373H283.829V45.5846H285.366V48.2374C285.822 47.3294 286.527 46.5702 287.399 46.0485C288.271 45.5269 289.274 45.2644 290.29 45.2917C291.316 45.2384 292.333 45.5126 293.193 46.0749C294.053 46.6371 294.713 47.4583 295.076 48.4197C295.544 47.4649 296.274 46.6634 297.182 46.1093C298.089 45.5553 299.136 45.2716 300.199 45.2917C303.448 45.2917 305.781 47.3808 305.781 51.2106ZM325.278 45.5846V60.9373H323.714V57.4501C323.065 58.6255 322.108 59.6013 320.945 60.2724C319.782 60.9434 318.458 61.2842 317.116 61.2579C314.99 61.2579 312.952 60.4136 311.449 58.9108C309.946 57.4079 309.102 55.3697 309.102 53.2444C309.102 51.1191 309.946 49.0808 311.449 47.578C312.952 46.0752 314.99 45.2309 317.116 45.2309C318.457 45.2041 319.781 45.544 320.944 46.214C322.107 46.8841 323.065 47.8588 323.714 49.0332V45.5846H325.278ZM323.714 53.2665C323.696 51.5577 323.002 49.9256 321.784 48.7269C320.566 47.5283 318.923 46.8605 317.214 46.8696C315.505 46.8788 313.869 47.564 312.664 48.7756C311.459 49.9872 310.783 51.6267 310.783 53.3356C310.783 55.0445 311.459 56.6839 312.664 57.8955C313.869 59.1071 315.505 59.7924 317.214 59.8015C318.923 59.8106 320.566 59.1429 321.784 57.9442C323.002 56.7456 323.696 55.1135 323.714 53.4047V53.2665ZM342.83 51.3985V60.9373H341.266V51.3985C341.266 48.5745 339.642 46.7341 336.757 46.7341C333.75 46.7341 331.391 48.6961 331.391 52.8133V60.9373H329.865V45.5846H331.402V48.5137C331.9 47.4991 332.685 46.6529 333.659 46.0802C334.634 45.5075 335.755 45.2333 336.884 45.2917C340.526 45.2917 342.83 47.6847 342.83 51.3985ZM362.267 39.4668V60.9373H360.736V57.3782C360.104 58.5719 359.152 59.566 357.986 60.2492C356.821 60.9325 355.488 61.2779 354.138 61.2468C352.012 61.2468 349.974 60.4025 348.471 58.8997C346.969 57.3969 346.124 55.3586 346.124 53.2333C346.124 51.108 346.969 49.0698 348.471 47.567C349.974 46.0642 352.012 45.2199 354.138 45.2199C355.488 45.1875 356.822 45.5324 357.987 46.2158C359.153 46.8992 360.105 47.8939 360.736 49.0884V39.4668H362.267ZM360.736 53.2831C360.721 51.5703 360.028 49.9334 358.809 48.7304C357.589 47.5275 355.943 46.8564 354.231 46.8641C352.518 46.8718 350.878 47.5575 349.669 48.7714C348.461 49.9852 347.782 51.6283 347.782 53.3411C347.782 55.0539 348.461 56.697 349.669 57.9108C350.878 59.1247 352.518 59.8105 354.231 59.8181C355.943 59.8258 357.589 59.1547 358.809 57.9518C360.028 56.7488 360.721 55.1119 360.736 53.3991V53.2831Z" fill="#666C75"/>
</g>
<defs>
<clipPath id="clip0_0_201">
<rect width="331" height="39.7744" fill="white" transform="translate(31.2672 30.3701)"/>
</clipPath>
</defs>
</svg>
