<svg width="247" height="101" viewBox="0 0 247 101" fill="none" xmlns="http://www.w3.org/2000/svg">
<path d="M82.3277 53.8404L76.2533 53.8144C76.9051 52.172 78.1825 50.8685 80.1639 50.8685C81.5716 50.8685 82.3537 51.8331 82.3537 53.1105C82.3537 53.3712 82.3277 53.8404 82.3277 53.8404ZM80.3203 45.6805C73.5421 45.6544 68.4323 51.0249 68.4062 58.1681C68.3802 63.0171 71.8475 67.1883 78.8864 67.2144C83.553 67.2405 87.2028 64.5813 87.2028 64.5813L85.4561 59.4195C85.4561 59.4195 82.3277 61.479 79.3296 61.479C76.7747 61.479 75.2887 60.0973 75.3148 57.8031L88.2977 57.8553C88.2977 57.8553 89.0538 55.6914 89.0798 53.8144C89.0798 49.0436 86.1339 45.7066 80.3203 45.6805Z" fill="#666C75"/>
<path d="M105.66 45.7845C102.819 45.7845 99.9509 47.4791 98.7778 49.304H98.6995C98.6995 49.304 99.0124 48.3133 99.2209 47.2705L99.4295 46.2277L92.7556 46.2017L88.6886 66.7449L95.5972 66.771L97.396 57.6725C97.9696 54.6744 100.29 52.0153 103.001 52.0153C104.226 52.0153 104.826 52.5367 104.826 53.7881C104.826 54.0748 104.774 54.518 104.696 54.9873L102.349 66.797L109.258 66.8231L111.813 53.8923C111.969 53.0581 112.1 52.3021 112.1 51.6242C112.126 47.3748 109.206 45.7845 105.66 45.7845Z" fill="#666C75"/>
<path d="M123.049 61.6615C121.042 61.6615 119.816 60.2537 119.816 58.0116C119.842 53.9708 122.632 51.6766 124.978 51.6766C127.22 51.6766 128.159 53.3712 128.159 55.3264C128.159 59.2109 125.239 61.6615 123.049 61.6615ZM131.47 38.3809L129.801 46.8015C129.723 47.1925 129.671 47.714 129.671 47.714H129.593C128.445 46.3062 126.125 45.863 124.405 45.863C118.304 45.8369 112.856 50.8945 112.829 58.533C112.803 63.8774 115.749 67.3708 120.781 67.3969C123.101 67.3969 125.291 66.3019 126.699 64.4249H126.777C126.777 64.4249 126.647 64.9463 126.542 65.572L126.256 66.9276L132.721 66.9537L138.378 38.433L131.47 38.3809Z" fill="#666C75"/>
<path d="M147.399 61.7134C145.209 61.7134 143.618 60.3056 143.618 57.9072C143.645 54.1531 146.669 51.6764 149.38 51.7025C151.544 51.7025 153.134 53.1885 153.108 55.6391C153.108 59.3671 150.136 61.7134 147.399 61.7134ZM149.484 45.941C143.045 45.9149 136.658 50.9725 136.632 58.194C136.606 63.8251 141.064 67.4228 147.268 67.4488C153.655 67.4749 160.095 62.4695 160.121 55.1959C160.121 49.6169 155.663 45.9671 149.484 45.941Z" fill="#666C75"/>
<path d="M168.15 52.6672C168.15 51.9112 169.402 51.5984 170.392 51.5984C173.469 51.5984 175.189 53.0844 175.189 53.0844L178.161 48.3917C178.161 48.3917 175.372 46.0194 170.418 46.0194C166.039 45.9933 161.789 48.6524 161.763 52.6672C161.737 58.7416 169.897 59.0805 169.871 60.9315C169.871 61.6614 168.698 61.9743 167.629 61.9743C164.553 61.9743 162.441 60.1233 162.441 60.1233L159 64.5552C159 64.5552 162.493 67.5533 167.603 67.5793C172.765 67.6054 176.284 64.9723 176.284 60.9836C176.336 54.7528 168.15 54.2836 168.15 52.6672Z" fill="#666C75"/>
<path d="M188.276 61.8438C186.086 61.8438 184.496 60.4361 184.496 58.0376C184.522 54.2835 187.546 51.8069 190.258 51.8329C192.421 51.8329 194.012 53.3189 193.986 55.7695C194.012 59.5236 191.04 61.8699 188.276 61.8438ZM190.362 46.0975C183.923 46.0714 177.535 51.129 177.509 58.3505C177.483 63.9816 181.941 67.5793 188.146 67.6053C194.533 67.6314 200.972 62.626 200.999 55.3524C201.025 49.7473 196.567 46.0975 190.362 46.0975Z" fill="#666C75"/>
<path d="M79.3556 40.4924L71.0654 32.8539L70.2572 36.9469L59.1774 36.8947C53.7809 36.8687 48.0455 40.1535 48.0194 46.28C47.9933 51.494 52.321 53.7882 55.4754 55.4827C57.2221 56.4213 58.7603 57.2294 58.7603 58.1419C58.7603 60.2536 55.8144 60.2796 55.684 60.2796L46.1163 60.2536L44.6042 67.5793L55.5276 67.6053C61.7583 67.6314 66.6595 63.4863 66.6856 58.1679C66.7117 52.9279 62.384 50.6858 59.2556 49.0434C57.4568 48.1049 55.8926 47.2967 55.8926 46.3061C55.8926 44.7158 58.0303 44.2204 59.047 44.2204L68.8233 44.2465L68.0412 48.2092L79.3556 40.4924Z" fill="#666C75"/>
</svg>
